<svg xmlns="http://www.w3.org/2000/svg" width="80" height="80"><g fill="#8c8994"><rect width="16" height="16"/><rect width="16" height="16" fill="#82918e" x="16"/><rect width="16" height="16" fill="#767266" x="32"/><rect width="16" height="16" fill="#84838b" x="48"/><rect width="16" height="16" fill="#958f7f" x="64"/><rect width="16" height="16" fill="#000100" y="16"/><rect width="16" height="16" fill="#100b0f" x="16" y="16"/><rect width="16" height="16" fill="#552f0a" x="32" y="16"/><rect width="16" height="16" fill="#66401c" x="48" y="16"/><rect width="16" height="16" fill="#1a0b08" x="64" y="16"/><rect width="16" height="16" fill="#010000" y="32"/><rect width="16" height="16" fill="#040005" x="16" y="32"/><rect width="16" height="16" fill="#48260a" x="32" y="32"/><rect width="16" height="16" fill="#513426" x="48" y="32"/><rect width="16" height="16" fill="#d0a59c" x="64" y="32"/><rect width="16" height="16" fill="#363926" y="48"/><rect width="16" height="16" fill="#553c38" x="16" y="48"/><rect width="16" height="16" fill="#52251f" x="32" y="48"/><rect width="16" height="16" fill="#302931" x="48" y="48"/><rect width="16" height="16" fill="#e0957e" x="64" y="48"/><rect width="16" height="16" fill="#b4aca1" y="64"/><rect width="16" height="16" fill="#bfaca6" x="16" y="64"/><rect width="16" height="16" fill="#cfbfb0" x="32" y="64"/><rect width="16" height="16" fill="#f6cec2" x="48" y="64"/><rect width="16" height="16" fill="#a06140" x="64" y="64"/></g></svg>