<svg xmlns="http://www.w3.org/2000/svg" width="99" height="99"><g fill="#000000"><rect width="19" height="19"/><rect width="19" height="19" x="19"/><rect width="19" height="19" x="38"/><rect width="19" height="19" x="57"/><rect width="19" height="19" x="76"/><rect width="19" height="19" y="19"/><rect width="19" height="19" x="19" y="19"/><rect width="19" height="19" x="38" y="19"/><rect width="19" height="19" x="57" y="19"/><rect width="19" height="19" x="76" y="19"/><rect width="19" height="19" y="38"/><rect width="19" height="19" x="19" y="38"/><rect width="19" height="19" x="38" y="38"/><rect width="19" height="19" x="57" y="38"/><rect width="19" height="19" x="76" y="38"/><rect width="19" height="19" y="57"/><rect width="19" height="19" x="19" y="57"/><rect width="19" height="19" x="38" y="57"/><rect width="19" height="19" x="57" y="57"/><rect width="19" height="19" x="76" y="57"/><rect width="19" height="19" y="76"/><rect width="19" height="19" x="19" y="76"/><rect width="19" height="19" x="38" y="76"/><rect width="19" height="19" x="57" y="76"/><rect width="19" height="19" x="76" y="76"/></g></svg>